# xmcd CD database file
#
# Track frame offsets:
#	182
#	11665
#	19930
#	37397
#	49295
#	63102
#	82582
#	99067
#	119600
#	130432
#	146330
#	161207
#	179382
#	196407
#	214665
#	228642
#	245212
#	261235
#	285335
#	299887
#	316170
#	333665
#
# Disc length: 4644 seconds
#
# Revision: 1
# Processed by: cddbd v1.5.1PL2 Copyright (c) Steve Scherf et al.
# Submitted via: CDex 1.50
#
DISCID=52122216
DTITLE=Геннадий Гольштейн и его друзья - Далекие радости
DYEAR=1997
DGENRE=Jazz
TTITLE0=Мои солнечные мечты сбываются
TTITLE1=Ты помнишь?
TTITLE2=Недолгое счастье
TTITLE3=Незабвенная Валентина Арт.
TTITLE4=Люси, моя дорогая
TTITLE5=Ленивые сумерки
TTITLE6=Безмятежные прогулки
TTITLE7=Весенние иллюзии
TTITLE8=Джулия
TTITLE9=Последняя мечта
TTITLE10=Там, за зеленым холмом
TTITLE11=Нежная Марина
TTITLE12=Далекие радости
TTITLE13=Тогда и всегда
TTITLE14=Домашние танцы
TTITLE15=Тени облаков
TTITLE16=Настигнутый радостью
TTITLE17=Таинственная луна
TTITLE18=Натали
TTITLE19=Ты можешь верить мне
TTITLE20=Райские яблочки
TTITLE21=Он шел ко мне навстречу
EXTD=YEAR: 1997
EXTT0=
EXTT1=
EXTT2=
EXTT3=
EXTT4=
EXTT5=
EXTT6=
EXTT7=
EXTT8=
EXTT9=
EXTT10=
EXTT11=
EXTT12=
EXTT13=
EXTT14=
EXTT15=
EXTT16=
EXTT17=
EXTT18=
EXTT19=
EXTT20=
EXTT21=
PLAYORDER=
